<svg xmlns="http://www.w3.org/2000/svg" width="981.327" height="376.075" viewBox="0 0 981.327 376.075">
  <g id="Grupo_5" data-name="Grupo 5" transform="translate(-2296.948 -2920.217)">
    <g id="g124" transform="translate(2425.394 2920.218)">
      <path id="path126" d="M19.922,67.442a110.756,110.756,0,0,1,143.5,82.87l75.851-15.49C221.87,48.991,145.991-15.64,55.018-15.64A187.517,187.517,0,0,0-4.62-5.979Z" transform="translate(4.62 15.64)" fill="#757d92"/>
    </g>
    <path id="path130" d="M51.522,228.66l51.309-57.995a110.607,110.607,0,0,1-.042-165.7L51.479-53.027a188.047,188.047,0,0,0,.042,281.687" transform="translate(2308.896 3020.469)" fill="#757d92"/>
    <g id="g132" transform="translate(2425.33 3130.467)">
      <path id="path134" d="M136.437,0A110.61,110.61,0,0,1,28.062,88.43,109.794,109.794,0,0,1-7.062,82.735L-31.64,156.171a187.677,187.677,0,0,0,59.7,9.654A188.079,188.079,0,0,0,212.288,15.54Z" transform="translate(31.64)" fill="#757d92"/>
    </g>
    <g id="g136" transform="translate(2718.15 3019.03)">
      <path id="path138" d="M137.223,123.112a.3.3,0,0,0-.057.085L135,121.724c-6.212,10.093-15.887,18.253-28.126,23.544C83.591,155.4,62.023,152.8,46.54,139.212l-1.424,2.153-.028-.035L18.655,180.845a112.935,112.935,0,0,0,21,11.5c29.174,12.112,59.029,11.552,88.437-1.24,21.263-9.2,37.957-23.267,49.375-41.088ZM54.756,25.63C30.207,36.191,17.522,59.239,20.135,86.281l104.1-44.814C106.348,20.417,83.038,13.455,54.756,25.63M-14.351,146a132.683,132.683,0,0,1-7.9-15.207C-34.261,102.9-34.842,74.049-24.7,46.355c11.148-30.4,32.468-53.653,59.978-65.5,34.628-14.9,72.9-11.949,106.081,7.727,21.057,12.076,36,30.747,47.342,57.138,1.452,3.371,2.706,7,3.952,10.058Z" transform="translate(31.822 28.55)" fill="#757d92"/>
    </g>
    <g id="g140" transform="translate(2966.169 2970.24)">
      <path id="path142" d="M39.632,0V219.7L73.786,233.53,54.378,278.8l-37.7-15.674A42.773,42.773,0,0,1-1.909,247.512c-4.151-6.452-7.281-15.306-7.281-27.22V0Z" transform="translate(9.191)" fill="#757d92"/>
    </g>
    <g id="g144" transform="translate(3051.017 3048.009)">
      <path id="path146" d="M42.581,69.771A62.153,62.153,0,0,1,63.929,22.889L28.883-16.18a114.79,114.79,0,0,0-.092,171.916l34.982-39.119A62.189,62.189,0,0,1,42.581,69.771" transform="translate(9.875 16.18)" fill="#757d92"/>
    </g>
    <g id="g148" transform="translate(3129.247 3146.651)">
      <path id="path150" d="M29.61,40.31A62.736,62.736,0,0,1,9.87,37.08L-6.867,86.859A114.993,114.993,0,0,0,29.568,92.8,114.889,114.889,0,0,0,142.122,1.142L90.672-9.348A62.307,62.307,0,0,1,29.61,40.31" transform="translate(6.867 9.348)" fill="#757d92"/>
    </g>
    <g id="g152" transform="translate(3129.478 3019.236)">
      <path id="path154" d="M29.547,0a114.765,114.765,0,0,0-36.4,5.858L9.75,55.665A62.293,62.293,0,0,1,90.5,102.4l51.45-10.447A114.783,114.783,0,0,0,29.547,0" transform="translate(6.852 0)" fill="#757d92"/>
    </g>
  </g>
</svg>
