<svg xmlns="http://www.w3.org/2000/svg" width="1978" height="861.031" xmlns:v="https://vecta.io/nano"><g fill="#b0b8d0" stroke="#707070"><path stroke="none" d="M151 231h1663v446H151z"/><path fill="none" d="M151.5 231.5h1662v445h-1662z"/></g><path d="M826.25 860.736L0 861.03v-1.99c0-1.094 1.318-8.185 2.928-15.758l5.564-26.77 5.508-27 5.833-28.5 5.668-28 5.526-27 5.87-28.5 5.674-28 5.09-24.5 3.847-19c.758-4.125 3.2-16.275 5.45-27l16.513-81c.772-4.125 3.26-16.275 5.53-27l5.444-26.5 4.41-22 7.15-34.5 8.485-41.5 6.465-32 4.505-22 11.457-55.5 5.6-27.5 11.48-55.5c1.732-8.525 4.627-21.575 6.44-29s4.373-16.425 5.692-20a182.55 182.55 0 0 1 8.091-17.222l5.693-10.722 5.176-6.778c2.847-3.728 7.93-9.62 11.294-13.09s9.044-8.7 12.618-11.6 8.75-6.846 11.5-8.738 8.15-5.205 12-7.362 9.25-4.98 12-6.276 8.375-3.66 12.5-5.253 12-4.265 17.5-5.937 15.824-4.19 22.942-5.6 18.368-3.288 25-4.178L324.5.63 1978-.001v1.987c0 1.093-1.326 8.184-2.948 15.757l-6.02 28.77-11.054 53.5-130.04 633.39-3.01 13.89-3.588 9.61c-1.973 5.285-4.94 12.31-6.592 15.61s-5.017 9.122-7.478 12.938-5.89 8.706-7.622 10.866-6.943 7.737-11.582 12.393l-8.433 8.465-8.115 5.768c-4.464 3.172-9.27 6.4-10.684 7.17s-6.79 3.515-11.95 6.1-12.45 5.873-16.2 7.308-11.174 3.88-16.5 5.43-11.033 3.08-12.683 3.395l-12.73 2.634c-5.35 1.134-16.15 2.825-24 3.76l-14.27 1.7-826.25.295zM532.285 647.014h21.5l.607-1.582a16.11 16.11 0 0 0 .607-4.545c0-1.63.71-7.556 1.575-13.168l4.517-28.7 5.385-34 3.644-24.25c.66-4.813 1.467-8.75 1.792-8.75s1.715 2.127 3.09 4.726l2.5 4.726 11.088 11.17 13.648 5.464 16.263 2.103 20.646-1.266 22.354-5.785 6-2.74c4.478-2.167 8.82-4.605 13-7.3l7-4.56 6.527-6.523c3.99-4.043 7.747-8.31 11.25-12.784 1.738-2.155 3.317-4.435 4.723-6.82a28.54 28.54 0 0 1 2.836-4.739c2.697-4.553 5.068-9.29 7.095-14.18 2.342-5.5 6-15.4 8.134-22l3.876-12 2-10.395c1.1-5.717 2.52-15.167 3.15-21l1.147-10.605-1.324-18-4.174-18-6.756-13.476-13.05-13.834-15.434-7.978-17-4.07-17-1.248-18.938 2.176-15.456 3.946-6.714 3.108a121.99 121.99 0 0 0-11.94 6.451 60.3 60.3 0 0 0-6.589 4.7 31.3 31.3 0 0 1-3.988 3.075l-2.625 1.718 1.836-8.783c1-4.83 1.854-9.346 1.875-10.033l.04-1.25h-36.667l-3.215 20.25-6.2 38.25-5.51 33-5.494 32.5-6.007 34-17.074 92.5-5.98 31-3.52 17.25-.547 2.25h21.5zm92.564-115.62l-8.35.5-10.914-1.926-11.086-5.06-7.744-7.4-2.235-5a70.57 70.57 0 0 1-3.509-10.381l-1.274-5.38 1.02-17.238 2.577-13.5L589 435l5.7-31.34 2.618-13.84 5.732-4.77c3.505-2.872 7.215-5.484 11.1-7.815l5.36-3.038 14-4.334 18-1.056 14.656 3.124 10.344 4.763 8.674 8.72 2.34 4.617c1.658 3.556 3 7.25 4.016 11.04l1.677 6.43-1.028 38-2.568 11.23c-1.413 6.177-4.1 15.627-5.975 21l-3.407 9.77-4.173 7.908a139.05 139.05 0 0 1-7.864 13.062c-2.127 2.946-4.536 5.68-7.192 8.16a162.85 162.85 0 0 1-7.164 5.741l-3.664 2.735-16.974 5.774-8.35.5zm207.65 27.492l11 .126 11-1c6.05-.552 15.95-1.7 22-2.553s16.5-2.76 23.225-4.24l12.225-2.7.61-4.506c.335-2.48 1.708-9.857 3.05-16.4l2.442-11.9-1.078-1.078-3.737 1.8c-2.056.993-8.458 3.36-14.228 5.262l-10.49 3.462-22.02 4.265-35 .068-6-1.916c-3.68-1.205-7.282-2.636-10.786-4.285l-4.786-2.37-7.9-7.137-6.164-10.774L792 489.52l-.028-25 3.43-22.308 30.096-1.4 111.252.714 1.68-7.125c.924-3.92 2.336-12.02 3.138-18l1.46-10.875.062-18.296-3.168-13.658-2.62-4.522c-1.67-2.812-3.555-5.5-5.64-8a44.58 44.58 0 0 0-6.593-6.01 97.45 97.45 0 0 0-8.569-5.194l-5-2.658-17.472-4.2-21.528-2.06-20 1.302-24 4.6-7.5 3a138.98 138.98 0 0 0-14 6.684c-3.827 2.194-7.502 4.643-11 7.33-2.475 2.005-6.76 5.9-9.523 8.664a90.37 90.37 0 0 0-9.081 11.018 145.16 145.16 0 0 0-7.6 13c-1.95 3.85-4.49 9.25-5.646 12s-3.255 8.375-4.666 12.5-3.63 12-4.928 17.5-3.08 14.554-3.958 20.12l-1.595 10.12.03 29.762 1.52 6.5c.98 4.058 2.164 8.063 3.552 12a81.79 81.79 0 0 0 4.592 10 56 56 0 0 0 6.683 8.855 85.34 85.34 0 0 0 9.12 8.084 71.81 71.81 0 0 0 10.879 6.4l5.88 2.676 8.2 1.982c4.51 1.1 11.313 2.38 15.12 2.87s11.873.945 17.923 1.014zm18.836-140.873c-27.685 0-50.336-.2-50.336-.44s1.18-3.73 2.625-7.75 3.98-10 5.635-13.3l3-5.988 13.23-13.155 6.5-3.108a74.89 74.89 0 0 1 10.5-4.136c4.625-.864 9.302-1.42 14-1.667l10-.64 15.358 1.974 11.162 5.1 3.06 3.3a35.63 35.63 0 0 1 4.459 5.941l1.4 2.64 1.846 11.72-2.112 19.5h-50.338zm299.17 140.878l11.006.122 12.494-1.48c6.872-.814 16.02-2.164 20.327-3s11.283-2.493 15.5-3.684 8.032-2.48 8.478-2.862 1.637-4.92 2.648-10.085l2.828-15.39c.545-3.3.827-6.177.626-6.393s-.938.063-1.64.62-5.607 2.62-10.9 4.588l-9.63 3.576-27.424 5.314-23.316-.8-13.244-4.6-10.234-8.952-6.788-12.364-3.234-16.54.02-21.46 3.93-26 2.08-7 2.875-10a108.09 108.09 0 0 1 4.075-10.5c1.8-4.125 5.02-10.5 7.15-14.168l3.87-6.668 9.508-9.852 10.07-6.246 6.465-1.99a120.62 120.62 0 0 1 13.965-3.16l7.5-1.17 22 1.104 26 5.2 5.287 1.972c2.908 1.085 5.415 1.972 5.57 1.972a64.26 64.26 0 0 0 1.55-8.25l2.757-16.59c.82-4.59 1.292-8.537 1.05-8.778s-4.15-.862-8.684-1.38-16.86-1.435-27.39-2.04l-19.144-1.1-27 2.072-20 4.2-6.44 2.576a93.42 93.42 0 0 0-11.529 5.681c-2.8 1.708-6.362 4.005-7.917 5.105-3.658 2.997-7.158 6.18-10.488 9.537l-7.66 7.537-4.276 6.264c-3.316 5.144-6.334 10.474-9.04 15.963l-4.764 9.7-3.65 10.5c-2.008 5.775-4.812 15.225-6.23 21l-2.58 10.5-1.872 19 .02 25 1.888 14.544 6 14.96 6.918 10.816 11 10.828 11.638 6.15 7.645 2.123c4.446 1.222 8.952 2.217 13.5 2.98a165.3 165.3 0 0 0 16.861.977zm164.494-.37l13.5-.387 17-4.35 5.5-2.6c3.8-1.866 7.464-3.96 11-6.273a84.8 84.8 0 0 0 10.405-8.535c3.16-3.2 6.13-6.587 8.9-10.138 2.192-2.9 4.117-5.144 4.28-4.983s-.343 4.786-1.12 10.276a150.42 150.42 0 0 0-1.434 16.233l-.02 6.25h36.706l1.122-28.5 2.62-18.5 5.17-33.5 5.42-31 5.554-30.5 2.686-14.5.18-25.05-5.664-11.573-7.68-7.374-12.612-6.394-18.8-4.18-25.876-1.97-16.666 1.03c-9.166.567-22.065 1.687-28.665 2.488l-12 1.457-16.356.062-1.2 5.75c-.655 3.163-2.473 10.676-4.042 16.7s-2.706 11.092-2.528 11.27 4.552-.815 9.72-2.206 16.147-3.68 24.4-5.084l15-2.554 27-1.112 17.4 3.048 11.6 5.73 6.5 9.688-.092 15.274-3.446 16.762-71.962.26-11.776 3.23c-5.416 1.414-10.74 3.165-15.938 5.24a24.6 24.6 0 0 1-5.088 2.011c-.51 0-4.362 2.137-8.562 4.748l-7.633 4.743-6.014 6a93.24 93.24 0 0 0-9.391 11c-2.557 4.078-4.798 8.346-6.705 12.766l-3.33 7.766-3.056 17.468v18.324l2.92 15.256 2.708 4.975c1.764 3.14 3.796 6.12 6.074 8.907l3.366 3.932 11.962 7.266 6.846 1.937c3.766 1.066 9.5 2.356 12.736 2.867l5.89.93 13.5-.387zm12.5-27.962l-8 .417-5.3-1.35a56.31 56.31 0 0 1-9.827-3.678l-4.528-2.33-2.47-2.94a46.8 46.8 0 0 1-4.614-7.054l-2.143-4.116-.84-19.226 1.7-5.83a96.33 96.33 0 0 1 4.861-12.367l3.166-6.536 12.124-12.04 12.876-6.2 16-3.8h50l3.164 1.308-1.33 7.846c-.732 4.315-2.478 12.12-3.88 17.346s-3.877 12.906-5.5 17.07-2.95 7.843-2.95 8.178a53.67 53.67 0 0 1-3.652 6.74l-3.652 6.13-6 5.94c-3.3 3.268-6.36 5.94-6.8 5.94a18.68 18.68 0 0 0-4.493 2.5l-3.686 2.5-16.225 5.132-8 .417zm325.5 28.32l9.5.12 9-1.46c4.95-.8 11.25-2.1 14-2.876 3.78-1.198 7.46-2.7 11-4.49l6-3.074 10.324-9.086 5.436-7.25c2.188-2.787 4.197-5.7 6.017-8.75l.58-1.5-.5 5c-.278 2.75-.9 7.25-1.384 10s-1.176 8.037-1.54 11.75l-.66 6.75H1760v-13.5l2.99-25.5 5.4-41.5 4.552-28 4.63-26.5 5.5-31 5.885-32 5.464-29.5 5.666-30 5.5-27.5 2.414-12.25v-.75h-42.8l-.632 6.25c-.348 3.438-1.986 14.8-3.64 25.25l-5.995 37-4.05 24.667-1.69-.718c-.93-.4-5.964-1.792-11.19-3.1l-9.5-2.385-26-2.025-22 2.05-20 5.056-19 9.268-14 10.364-6.045 6.482c-3.808 4.157-7.372 8.53-10.674 13.1l-4.63 6.622-5.436 11.31c-3 6.22-6.628 14.46-8.085 18.31s-4.027 12.384-5.7 18.965l-3.06 11.965-3.016 31.07 2.264 25 1.34 4.5c.736 2.475 2.29 6.885 3.45 9.8l2.11 5.3 7.7 10.422 8.8 7.2 6 2.98a82.42 82.42 0 0 0 12.3 4.706c4.115 1.08 8.29 1.927 12.5 2.533 3.41.444 10.473.86 15.7.927zm17.05-28.372l-7.55.4-5.1-.917a55.5 55.5 0 0 1-9.967-3.005l-4.87-2.088-8.2-6.718-6.092-11.668-2.776-13 .236-26 3.224-23 2.505-8a81.3 81.3 0 0 0 2.52-9.225c.77-2.75 1.78-5.428 3.023-8 1.655-3.726 4.42-9.475 6.143-12.775a104.42 104.42 0 0 1 7.161-11.432c2.7-3.53 5.62-6.87 8.767-10a66.91 66.91 0 0 1 9.217-7.323l4.476-2.755 15.726-5.442 16.5-.01h16.508l9.5 2.636c5.225 1.45 10.773 3.13 12.328 3.736l2.828 1.1-.552 2.745c-.3 1.5-1.492 8.145-2.64 14.745l-5.03 28-5.524 29.5c-1.424 7.425-3.478 16.875-4.572 21l-3.43 12.7c-1.136 3.76-2.538 7.437-4.194 11a87.27 87.27 0 0 1-5.887 10.3c-1.934 2.723-4.103 5.273-6.48 7.62a84.71 84.71 0 0 1-8.845 6.774l-5.5 3.655-15.898 5.046-7.55.4zM198.3 554.014h24.3l1.743-10.75 4.16-25.25 5.5-33 5.648-33.5 4.982-28.44c1.33-7.39 2.668-13.692 2.977-14l.56-.56h130.662l1.45 1.45-1.133 5.775-4.1 21.775-6.088 33-5.523 29.5-5.93 32-3.524 20.75.01 1.25H402.8l1.08-6.25a516.56 516.56 0 0 0 2.123-13.75c.574-4.125 1.957-12.9 3.074-19.5l4.96-29 11.544-68.5 5.424-30 5.97-32 5.563-30.5 5.627-31 4.787-24.25 1.685-7.25h-49.4l-.672 4.75c-.37 2.612-1.563 9.925-2.652 16.25l-4.4 25-5.4 31.5-4.654 29.123-1.666 11.123-72.524 1.468-30.373-.72-30.58-.9a84.85 84.85 0 0 1 1.264-8.636c.81-4.654 2.338-12.736 3.4-17.96l4.47-23c1.397-7.425 2.98-16.65 3.517-20.5s1.663-10.263 2.5-14.25 2.43-12.387 3.538-18.665 2.286-12.128 2.62-13l.608-1.585H225.21l-1.57 8.75-2.558 15.25L206 380.5l-6.1 36-5.44 29.5-5.51 29-8.934 45.5c-.475 2.75-2.023 10.682-3.44 17.626S174 551.493 174 552.386V554h24.3zm268.98 0h21.5l.607-1.582c.433-1.655.637-3.36.607-5.07 0-1.92 1.353-11.895 3.006-22.168l6.07-37.18 5.53-33 5.362-29.5 5.432-28.5 6.1-31.392c1.96-9.84 3.8-18.287 4.1-18.77l.543-.878-43.504.54-1.812 13-4.84 31.5-5.6 34.5-5.48 31.5-5.45 29-5.57 29-4.97 25-2.546 11.75-.606 2.25h21.5zm503.074 0h21.35l.64-9.034c.353-4.97 1.56-14.98 2.685-22.25l5.114-32.216c1.69-10.45 4.828-27.844 6.975-38.653s4.575-21.553 5.394-23.876a27.43 27.43 0 0 0 1.49-5.593c0-.754 1.605-4.86 3.567-9.124a124.19 124.19 0 0 1 8.125-14.512l4.558-6.758 12.2-11.298 15.048-7.186 23 .12 5.654 1.7c3.1.93 5.922 1.7 6.25 1.7s.6-1.063.6-2.362 1.125-7.886 2.5-14.638l2.5-12.908c0-.348-3.262-1.625-7.25-2.837a91.43 91.43 0 0 0-12.25-2.822l-5-.617-6.5 1.15a83.9 83.9 0 0 0-11.813 3.1 67.2 67.2 0 0 0-10.722 5.412c-3.656 2.45-7.096 5.206-10.283 8.24-3.595 3.703-6.943 7.638-10.02 11.78l-6.578 9-1.432 2 .87-4c.478-2.2 1.8-9.4 2.96-16s2.33-12.788 2.622-13.75l.532-1.75H985v2.4c0 1.326-1.125 9.313-2.5 17.75l-5.04 31.34-5.51 34-5.5 31.5-5.515 29-6.034 31-4.476 22.373c-.776 3.78-1.415 7.268-1.415 7.75v.877h21.35zm506.82 0h21.83v-13.36l2.516-16.57 5.073-32.07 3.9-24c.74-4.675 2.687-14.8 4.335-22.5s3.707-16.025 4.575-18.5a31.62 31.62 0 0 0 1.593-5.77c.01-.7 1.87-5.192 4.135-9.985l4.12-8.715 10.872-14.446 5.95-4.473c3.7-2.725 7.61-5.15 11.693-7.254l5.743-2.782 25 .172 9.842 3.16 1.658-1.026.042-3.19a130.43 130.43 0 0 1 2.379-14.512l2.337-11.32-2.63-1.03c-1.446-.566-4.88-1.738-7.63-2.6l-5-1.574-18 .046-14.67 5.16-11.014 6.642-14.32 15-3.847 5.818c-2.116 3.2-3.98 5.675-4.14 5.5s.99-6.843 2.556-14.818 2.868-15.513 2.89-16.75l.043-2.25h-37v.637c0 .35-.922 6.763-2.05 14.25l-5.03 32.113-5.976 36.5-5.52 31.5-5.48 29-5.935 30.5-6.67 33.5h21.83zm-967.6-244.022l6.072.022 9.652-3.3 8.542-8.666 4.5-11.546.16-17-4-6.638-6.964-4.312H512.5l-10.236 4.584-5.942 6.368-4.666 11-.882 17.134 4.344 8.516 8.382 3.8 6.072.022z" fill="#757d92"/></svg>