<svg xmlns="http://www.w3.org/2000/svg" width="1000.046" height="323.653" viewBox="0 0 1000.046 323.653">
  <g id="g4158" transform="translate(-81.166 -105.048)">
    <path id="polygon9" d="M514.518,424.031H433.507l50.67-313.3h81.006Z" fill="#757d92"/>
    <path id="path11" d="M808.189,118.386a199.643,199.643,0,0,0-72.66-13.339c-80,0-136.336,42.661-136.682,103.652-.664,45,40.335,69.993,71,85,31.342,15.332,42,25.339,42,39.006-.319,20.989-25.326,30.664-48.65,30.664-32.343,0-49.673-4.988-76.009-16.666L576.515,341.7l-11.336,70.33c19,8.656,54.006,16.338,90.349,16.674,85,0,140.341-42,141-107,.323-35.666-21.326-62.994-68-85.325-28.334-14.335-45.686-24-45.686-38.669.332-13.334,14.677-26.992,46.661-26.992,26.336-.669,45.686,5.661,60.345,12l7.327,3.327,11.017-67.654h0Z" fill="#757d92"/>
    <path id="path13" d="M915.859,313.039c6.672-18,32.343-87.66,32.343-87.66-.337.669,6.658-18.331,10.659-30l5.661,27s15.341,74.995,18.672,90.659Zm100-202.312H953.194c-19.323,0-34,5.661-42.342,26L790.522,424.027h85s13.994-38.669,17-47H996.537c2.326,11,9.666,47,9.666,47h75.008l-65.355-313.3h0Z" fill="#757d92"/>
    <path id="path15" d="M365.844,110.727,286.508,324.371l-8.669-43.329c-14.668-50-60.668-104.317-112-131.326L238.5,423.7h85.667L451.506,110.727H365.844Z" fill="#757d92"/>
    <path id="path17" d="M212.837,110.727H82.5l-1.333,6.33c101.672,26,169.007,88.67,196.672,164L249.5,137.063c-4.665-20.01-19-25.676-36.667-26.336Z" fill="#b0b8d0"/>
  </g>
</svg>
